<svg width="38" height="38" viewBox="0 0 38 38" fill="none" xmlns="http://www.w3.org/2000/svg">
<path d="M19 38C8.52298 38 0 29.477 0 19C0 8.52298 8.52298 0 19 0C29.477 0 38 8.52298 38 19C38 29.477 29.477 38 19 38ZM19 2.375C9.83253 2.375 2.375 9.83253 2.375 19C2.375 28.1675 9.83253 35.625 19 35.625C28.1675 35.625 35.625 28.1675 35.625 19C35.625 9.83253 28.1675 2.375 19 2.375Z" fill="#F09A37"/>
<path d="M13.1228 26.0647C12.8187 26.0647 12.5146 25.9493 12.2835 25.7165C11.8196 25.2526 11.8196 24.5006 12.2835 24.0367L24.0396 12.2803C24.5038 11.8164 25.2558 11.8164 25.7197 12.2803C26.1836 12.7442 26.1836 13.4962 25.7197 13.9604L13.9633 25.7165C13.729 25.9493 13.4252 26.0647 13.1228 26.0647V26.0647Z" fill="#F05E37"/>
<path d="M24.8772 26.0647C24.5734 26.0647 24.2692 25.9493 24.0382 25.7165L12.282 13.9618C11.8179 13.498 11.8179 12.7459 12.282 12.282C12.7459 11.8179 13.498 11.8179 13.9618 12.282L25.718 24.0382C26.1821 24.502 26.1821 25.2541 25.718 25.718C25.4854 25.9493 25.1813 26.0647 24.8772 26.0647V26.0647Z" fill="#F05E37"/>
</svg>
